<svg width="323" height="324" viewBox="0 0 323 324" fill="none" xmlns="http://www.w3.org/2000/svg">
<path fill-rule="evenodd" clip-rule="evenodd" d="M188.985 41.1278C183.596 40.3842 178.093 40 172.5 40C106.502 40 53 93.502 53 159.5C53 217.842 94.8092 266.419 150.101 276.904C142.61 278.281 134.889 279 127 279C56.8598 279 0 222.14 0 152C0 81.8598 56.8598 25 127 25C149.51 25 170.651 30.856 188.985 41.1278Z" fill="#00A547"/>
<path fill-rule="evenodd" clip-rule="evenodd" d="M267.544 231.945C301.025 209.077 323 170.605 323 127C323 56.8598 266.14 0 196 0C138.007 0 89.0928 38.8708 73.8898 91.9798C95.4244 60.5898 131.558 40 172.5 40C238.498 40 292 93.502 292 159.5C292 186.738 282.887 211.847 267.544 231.945Z" fill="#E69A00"/>
<path fill-rule="evenodd" clip-rule="evenodd" d="M188.985 41.1278C183.596 40.3842 178.093 40 172.5 40C106.502 40 53 93.502 53 159.5C53 217.842 94.8092 266.419 150.101 276.904C142.61 278.281 134.889 279 127 279C56.8598 279 0 222.14 0 152C0 81.8598 56.8598 25 127 25C149.51 25 170.651 30.8561 188.985 41.1278Z" fill="#00A547"/>
<path fill-rule="evenodd" clip-rule="evenodd" d="M172.5 279C238.498 279 292 225.498 292 159.5C292 143.31 288.78 127.871 282.946 113.791C302.291 136.077 314 165.171 314 197C314 267.14 257.14 324 187 324C117.86 324 61.6238 268.75 60.0345 199.991C76.6237 246.061 120.715 279 172.5 279Z" fill="#009CC8"/>
<path fill-rule="evenodd" clip-rule="evenodd" d="M60.5342 201.353C61.3333 226.895 70.8112 252.189 84.5 271C106.057 278.869 130.559 279.981 148.517 276.593C107.902 268.318 74.7782 239.442 60.5342 201.353Z" fill="#007F92"/>
<path fill-rule="evenodd" clip-rule="evenodd" d="M269.194 229.732C283.538 210.017 292 185.747 292 159.5C292 143.796 288.971 128.8 283.465 115.064C297.706 132.39 307.186 150.404 312 177.5C300.82 202.821 284.233 219.897 269.194 229.732Z" fill="#906D0E"/>
<path fill-rule="evenodd" clip-rule="evenodd" d="M75.3907 89.8424C97.0803 59.6585 132.494 40 172.5 40C177.198 40 181.832 40.2711 186.388 40.7984C167.159 28.8502 145.371 25.0146 120.5 25.5C93.2687 47.4985 80.2263 70.2147 75.3907 89.8424Z" fill="#006C32"/>
<mask id="path-8-inside-1_2_49" fill="white">
<path fill-rule="evenodd" clip-rule="evenodd" d="M267.544 231.945C282.887 211.847 292 186.738 292 159.5C292 143.31 288.78 127.871 282.946 113.791C267.014 75.3364 231.583 47.0056 188.985 41.1278C188.564 41.0697 188.142 41.0138 187.72 40.9601C182.736 40.3265 177.656 40 172.5 40C131.558 40 95.4243 60.5898 73.8898 91.9798C60.7112 111.19 53 134.444 53 159.5C53 173.713 55.4813 187.347 60.0345 199.991C74.1712 239.25 108.279 268.973 150.101 276.904C157.356 278.28 164.844 279 172.5 279C211.26 279 245.711 260.546 267.544 231.945ZM120.074 25.1857C53.1545 28.7823 0 84.1837 0 152C0 207.129 35.1263 254.054 84.2186 271.614C107.305 303.361 144.742 324 187 324C257.14 324 314 267.14 314 197C314 190.399 313.496 183.916 312.526 177.586C319.264 162.086 323 144.979 323 127C323 56.8598 266.14 0 196 0C167.532 0 141.252 9.36643 120.074 25.1857Z"/>
</mask>
<path d="M267.544 231.945L268.737 232.855L268.737 232.855L267.544 231.945ZM282.946 113.791L281.56 114.365L281.56 114.365L282.946 113.791ZM188.985 41.1278L189.19 39.6418L189.19 39.6418L188.985 41.1278ZM187.72 40.9601L187.531 42.4481L187.531 42.4481L187.72 40.9601ZM73.8898 91.9798L75.1267 92.8284L75.1267 92.8284L73.8898 91.9798ZM60.0345 199.991L58.6232 200.5L60.0345 199.991ZM150.101 276.904L150.38 275.43L150.38 275.43L150.101 276.904ZM120.074 25.1857L120.154 26.6835L120.608 26.6591L120.971 26.3874L120.074 25.1857ZM84.2186 271.614L85.4317 270.732L85.1595 270.358L84.7238 270.202L84.2186 271.614ZM312.526 177.586L311.15 176.988L310.977 177.386L311.043 177.814L312.526 177.586ZM290.5 159.5C290.5 186.397 281.502 211.189 266.352 231.035L268.737 232.855C284.272 212.505 293.5 187.078 293.5 159.5H290.5ZM281.56 114.365C287.32 128.267 290.5 143.51 290.5 159.5H293.5C293.5 143.109 290.24 127.476 284.332 113.216L281.56 114.365ZM188.78 42.6137C230.839 48.4171 265.827 76.3914 281.56 114.365L284.332 113.216C268.2 74.2814 232.328 45.5941 189.19 39.6418L188.78 42.6137ZM187.531 42.4481C187.948 42.5011 188.364 42.5563 188.78 42.6137L189.19 39.6418C188.764 39.583 188.337 39.5264 187.909 39.4721L187.531 42.4481ZM172.5 41.5C177.593 41.5 182.609 41.8225 187.531 42.4481L187.909 39.4721C182.862 38.8306 177.719 38.5 172.5 38.5V41.5ZM75.1267 92.8284C96.3935 61.8287 132.073 41.5 172.5 41.5V38.5C131.042 38.5 94.4552 59.351 72.6529 91.1312L75.1267 92.8284ZM54.5 159.5C54.5 134.757 62.114 111.796 75.1267 92.8284L72.6529 91.1312C59.3084 110.583 51.5 134.132 51.5 159.5H54.5ZM61.4458 199.483C56.9505 186.999 54.5 173.538 54.5 159.5H51.5C51.5 173.889 54.0122 187.694 58.6232 200.5L61.4458 199.483ZM150.38 275.43C109.088 267.6 75.4052 238.249 61.4458 199.483L58.6232 200.5C72.9371 240.25 107.471 270.347 149.821 278.378L150.38 275.43ZM172.5 277.5C164.938 277.5 157.544 276.789 150.38 275.43L149.821 278.378C157.168 279.771 164.75 280.5 172.5 280.5V277.5ZM266.352 231.035C244.79 259.28 210.773 277.5 172.5 277.5V280.5C211.748 280.5 246.631 261.812 268.737 232.855L266.352 231.035ZM119.993 23.6878C52.2823 27.327 -1.5 83.3822 -1.5 152H1.5C1.5 84.9852 54.0267 30.2376 120.154 26.6835L119.993 23.6878ZM-1.5 152C-1.5 207.782 34.0434 255.26 83.7134 273.026L84.7238 270.202C36.2093 252.848 1.5 206.476 1.5 152H-1.5ZM83.0054 272.496C106.362 304.615 144.242 325.5 187 325.5V322.5C145.243 322.5 108.248 302.108 85.4317 270.732L83.0054 272.496ZM187 325.5C257.969 325.5 315.5 267.969 315.5 197H312.5C312.5 266.312 256.312 322.5 187 322.5V325.5ZM315.5 197C315.5 190.323 314.991 183.763 314.008 177.359L311.043 177.814C312.002 184.068 312.5 190.475 312.5 197H315.5ZM313.901 178.184C320.72 162.499 324.5 145.189 324.5 127H321.5C321.5 144.77 317.808 161.673 311.15 176.988L313.901 178.184ZM324.5 127C324.5 56.0314 266.969 -1.5 196 -1.5V1.5C265.312 1.5 321.5 57.6883 321.5 127H324.5ZM196 -1.5C167.198 -1.5 140.605 7.9777 119.176 23.9839L120.971 26.3874C141.9 10.7552 167.867 1.5 196 1.5V-1.5Z" fill="black" fill-opacity="0.9" mask="url(#path-8-inside-1_2_49)"/>
<path fill-rule="evenodd" clip-rule="evenodd" d="M102 181.5L135.5 100C139 91.5 147 92 151 100C152.6 103.2 174.333 157 185 183.5C187.415 189.5 183.2 201 176 201H156V221.5C156 233.5 130.5 233 130.5 221.5V201H114C104 201 98.5 190.5 102 181.5ZM109.5 183.5L143 103L177.5 183.5C180.5 189.5 176 195 171.5 195C169.638 195 167.251 194.984 164.695 194.967C158.995 194.929 152.452 194.885 149 195V220C149 223.5 137.5 225 137.5 220V195H116C111 195 106.5 189 109.5 183.5Z" fill="white"/>
<path fill-rule="evenodd" clip-rule="evenodd" d="M159.057 181.5L192.557 100C196.057 91.5 204.057 92 208.057 100C209.657 103.2 231.39 157 242.057 183.5C244.472 189.5 240.257 201 233.057 201H213.057V221.5C213.057 233.5 187.557 233 187.557 221.5V201H171.057C161.057 201 155.557 190.5 159.057 181.5ZM166.557 183.5L200.057 103L234.557 183.5C237.557 189.5 233.057 195 228.557 195C226.695 195 224.308 194.984 221.752 194.967C216.052 194.929 209.508 194.885 206.057 195V220C206.057 223.5 194.557 225 194.557 220V195H173.057C168.057 195 163.557 189 166.557 183.5Z" fill="white"/>
</svg>
