<svg width="52" height="52" viewBox="0 0 52 52" fill="none" xmlns="http://www.w3.org/2000/svg">
<path d="M41.0635 19.4511C39.7258 19.4549 38.422 19.8723 37.3309 20.6461C36.2398 21.42 35.4147 22.5124 34.9688 23.7736H6.48372C5.91052 23.7736 5.3608 24.0013 4.95549 24.4066C4.55018 24.8119 4.32248 25.3616 4.32248 25.9348C4.32248 26.508 4.55018 27.0577 4.95549 27.463C5.3608 27.8684 5.91052 28.0961 6.48372 28.0961H34.9688C35.3653 29.2175 36.0626 30.2082 36.9845 30.9599C37.9063 31.7115 39.0172 32.1951 40.1955 32.3577C41.3737 32.5202 42.574 32.3556 43.665 31.8816C44.7559 31.4077 45.6955 30.6429 46.3809 29.6707C47.0662 28.6986 47.471 27.5566 47.5508 26.3699C47.6306 25.1831 47.3824 23.9973 46.8334 22.9421C46.2844 21.8869 45.4557 21.0031 44.438 20.3874C43.4204 19.7717 42.2529 19.4478 41.0635 19.4511ZM41.0635 28.0961C40.636 28.0961 40.2182 27.9693 39.8628 27.7318C39.5074 27.4943 39.2303 27.1568 39.0668 26.7619C38.9032 26.367 38.8604 25.9324 38.9438 25.5132C39.0272 25.0939 39.233 24.7089 39.5353 24.4066C39.8375 24.1043 40.2226 23.8985 40.6418 23.8151C41.0611 23.7317 41.4956 23.7745 41.8906 23.9381C42.2855 24.1017 42.623 24.3787 42.8605 24.7341C43.098 25.0895 43.2247 25.5074 43.2247 25.9348C43.2247 26.508 42.997 27.0577 42.5917 27.463C42.1864 27.8684 41.6367 28.0961 41.0635 28.0961Z" fill="white"/>
<path d="M6.48372 15.1286H9.03397C9.48827 16.3803 10.3169 17.4618 11.4074 18.226C12.4978 18.9903 13.7971 19.4003 15.1287 19.4003C16.4602 19.4003 17.7595 18.9903 18.85 18.226C19.9404 17.4618 20.769 16.3803 21.2233 15.1286H45.386C45.9592 15.1286 46.5089 14.9009 46.9142 14.4956C47.3195 14.0903 47.5472 13.5406 47.5472 12.9674C47.5472 12.3942 47.3195 11.8445 46.9142 11.4392C46.5089 11.0339 45.9592 10.8062 45.386 10.8062H21.2233C20.769 9.55449 19.9404 8.47303 18.85 7.70878C17.7595 6.94453 16.4602 6.53454 15.1287 6.53454C13.7971 6.53454 12.4978 6.94453 11.4074 7.70878C10.3169 8.47303 9.48827 9.55449 9.03397 10.8062H6.48372C5.91052 10.8062 5.3608 11.0339 4.95549 11.4392C4.55018 11.8445 4.32248 12.3942 4.32248 12.9674C4.32248 13.5406 4.55018 14.0903 4.95549 14.4956C5.3608 14.9009 5.91052 15.1286 6.48372 15.1286ZM15.1287 10.8062C15.5561 10.8062 15.974 10.9329 16.3294 11.1704C16.6848 11.4079 16.9618 11.7454 17.1254 12.1403C17.289 12.5353 17.3318 12.9698 17.2484 13.389C17.165 13.8083 16.9591 14.1934 16.6569 14.4956C16.3546 14.7979 15.9695 15.0037 15.5503 15.0871C15.1311 15.1705 14.6965 15.1277 14.3016 14.9641C13.9067 14.8006 13.5691 14.5235 13.3317 14.1681C13.0942 13.8127 12.9674 13.3949 12.9674 12.9674C12.9674 12.3942 13.1951 11.8445 13.6004 11.4392C14.0057 11.0339 14.5555 10.8062 15.1287 10.8062Z" fill="white"/>
<path d="M45.386 36.741H29.8683C29.414 35.4893 28.5853 34.4079 27.4949 33.6436C26.4045 32.8794 25.1052 32.4694 23.7736 32.4694C22.442 32.4694 21.1427 32.8794 20.0523 33.6436C18.9619 34.4079 18.1332 35.4893 17.6789 36.741H6.48372C5.91052 36.741 5.3608 36.9687 4.95549 37.374C4.55018 37.7793 4.32248 38.329 4.32248 38.9022C4.32248 39.4754 4.55018 40.0252 4.95549 40.4305C5.3608 40.8358 5.91052 41.0635 6.48372 41.0635H17.6789C18.1332 42.3152 18.9619 43.3966 20.0523 44.1609C21.1427 44.9251 22.442 45.3351 23.7736 45.3351C25.1052 45.3351 26.4045 44.9251 27.4949 44.1609C28.5853 43.3966 29.414 42.3152 29.8683 41.0635H45.386C45.9592 41.0635 46.5089 40.8358 46.9142 40.4305C47.3195 40.0252 47.5472 39.4754 47.5472 38.9022C47.5472 38.329 47.3195 37.7793 46.9142 37.374C46.5089 36.9687 45.9592 36.741 45.386 36.741ZM23.7736 41.0635C23.3461 41.0635 22.9283 40.9367 22.5729 40.6992C22.2175 40.4618 21.9405 40.1242 21.7769 39.7293C21.6133 39.3344 21.5705 38.8998 21.6539 38.4806C21.7373 38.0614 21.9431 37.6763 22.2454 37.374C22.5476 37.0718 22.9327 36.8659 23.352 36.7825C23.7712 36.6991 24.2058 36.7419 24.6007 36.9055C24.9956 37.0691 25.3331 37.3461 25.5706 37.7015C25.8081 38.0569 25.9348 38.4748 25.9348 38.9022C25.9348 39.4754 25.7071 40.0252 25.3018 40.4305C24.8965 40.8358 24.3468 41.0635 23.7736 41.0635Z" fill="white"/>
</svg>
