<svg width="52" height="52" viewBox="0 0 52 52" fill="none" xmlns="http://www.w3.org/2000/svg">
<path d="M25.9349 25.9348C27.1285 25.9348 28.0961 24.9672 28.0961 23.7736C28.0961 22.58 27.1285 21.6124 25.9349 21.6124C24.7412 21.6124 23.7736 22.58 23.7736 23.7736C23.7736 24.9672 24.7412 25.9348 25.9349 25.9348Z" fill="white"/>
<path d="M34.5798 25.9348C35.7734 25.9348 36.7411 24.9672 36.7411 23.7736C36.7411 22.58 35.7734 21.6124 34.5798 21.6124C33.3862 21.6124 32.4186 22.58 32.4186 23.7736C32.4186 24.9672 33.3862 25.9348 34.5798 25.9348Z" fill="white"/>
<path d="M17.2899 25.9348C18.4835 25.9348 19.4512 24.9672 19.4512 23.7736C19.4512 22.58 18.4835 21.6124 17.2899 21.6124C16.0963 21.6124 15.1287 22.58 15.1287 23.7736C15.1287 24.9672 16.0963 25.9348 17.2899 25.9348Z" fill="white"/>
<path d="M41.0635 6.48371H10.8062C9.0866 6.48371 7.43744 7.16681 6.22151 8.38274C5.00558 9.59867 4.32248 11.2478 4.32248 12.9674V45.386C4.32314 45.7689 4.42555 46.1448 4.61922 46.4752C4.81289 46.8056 5.09087 47.0786 5.42471 47.2662C5.74772 47.4493 6.11244 47.5461 6.48372 47.5472C6.87162 47.5471 7.25235 47.4426 7.58595 47.2446L17.2899 41.3661C17.6486 41.1525 18.0614 41.0474 18.4786 41.0635H41.0635C42.7831 41.0635 44.4322 40.3804 45.6482 39.1644C46.8641 37.9485 47.5472 36.2994 47.5472 34.5798V12.9674C47.5472 11.2478 46.8641 9.59867 45.6482 8.38274C44.4322 7.16681 42.7831 6.48371 41.0635 6.48371ZM43.2247 34.5798C43.2247 35.153 42.997 35.7027 42.5917 36.108C42.1864 36.5133 41.6367 36.741 41.0635 36.741H18.4786C17.2982 36.7401 16.1399 37.0614 15.1287 37.6703L8.64495 41.5606V12.9674C8.64495 12.3942 8.87265 11.8445 9.27796 11.4392C9.68327 11.0339 10.233 10.8062 10.8062 10.8062H41.0635C41.6367 10.8062 42.1864 11.0339 42.5917 11.4392C42.997 11.8445 43.2247 12.3942 43.2247 12.9674V34.5798Z" fill="white"/>
</svg>
