<svg width="480" height="480" viewBox="0 0 480 480" fill="none" xmlns="http://www.w3.org/2000/svg">
<path fill-rule="evenodd" clip-rule="evenodd" d="M240 480C372.548 480 480 372.548 480 240C480 107.452 372.548 0 240 0C107.452 0 0 107.452 0 240C0 372.548 107.452 480 240 480ZM239.5 432C345.263 432 431 346.263 431 240.5C431 134.737 345.263 49 239.5 49C133.737 49 48 134.737 48 240.5C48 346.263 133.737 432 239.5 432Z" fill="#FFB802"/>
<rect x="219" y="122" width="44" height="140" fill="#FFB802"/>
<rect x="219" y="314" width="44" height="46" fill="#FFB802"/>
</svg>
