<svg width="52" height="52" viewBox="0 0 52 52" fill="none" xmlns="http://www.w3.org/2000/svg">
<path d="M37.9513 45.386C37.6057 45.3873 37.2648 45.3058 36.9571 45.1482L25.9348 39.3777L14.9125 45.1482C14.5546 45.3364 14.1511 45.4204 13.7478 45.3907C13.3445 45.361 12.9577 45.2187 12.6312 44.9801C12.3048 44.7414 12.0518 44.416 11.9011 44.0407C11.7504 43.6655 11.708 43.2555 11.7788 42.8573L13.94 30.6896L5.0357 22.0446C4.75789 21.7674 4.56081 21.4197 4.46562 21.039C4.37043 20.6582 4.38072 20.2587 4.49539 19.8834C4.62065 19.4993 4.85108 19.158 5.16051 18.8982C5.46994 18.6384 5.84599 18.4706 6.24599 18.4137L18.565 16.6199L23.9897 5.53277C24.1667 5.16736 24.443 4.8592 24.787 4.64358C25.1311 4.42795 25.5288 4.31359 25.9348 4.31359C26.3408 4.31359 26.7386 4.42795 27.0827 4.64358C27.4267 4.8592 27.703 5.16736 27.88 5.53277L33.3695 16.5983L45.6885 18.3921C46.0885 18.449 46.4646 18.6168 46.774 18.8766C47.0835 19.1363 47.3139 19.4777 47.4391 19.8618C47.5538 20.2371 47.5641 20.6366 47.4689 21.0174C47.3737 21.3981 47.1766 21.7458 46.8988 22.023L37.9945 30.6679L40.1558 42.8357C40.2329 43.2409 40.1925 43.6597 40.0394 44.0426C39.8862 44.4256 39.6266 44.7567 39.2913 44.9969C38.8999 45.2712 38.4287 45.408 37.9513 45.386ZM25.9348 34.7959C26.2813 34.7872 26.624 34.8691 26.929 35.0336L35.0769 39.3561L33.5208 30.2573C33.4604 29.9099 33.486 29.553 33.5952 29.2177C33.7045 28.8824 33.8941 28.579 34.1475 28.3338L40.6312 22.0014L31.5541 20.6614C31.2212 20.5944 30.9088 20.4499 30.6422 20.2396C30.3756 20.0293 30.1623 19.7592 30.0196 19.4511L25.9348 11.3465L21.8501 19.4511C21.6937 19.7617 21.4647 20.03 21.1826 20.2331C20.9004 20.4363 20.5733 20.5684 20.2292 20.6182L11.152 21.9582L17.6357 28.2906C17.8892 28.5357 18.0788 28.8392 18.188 29.1745C18.2973 29.5097 18.3228 29.8667 18.2625 30.2141L16.7064 39.2048L24.8542 34.8823C25.1995 34.754 25.5736 34.7241 25.9348 34.7959Z" fill="white"/>
</svg>
