<svg width="52" height="52" viewBox="0 0 52 52" fill="none" xmlns="http://www.w3.org/2000/svg">
<path d="M44.7592 41.6902L37.411 34.3637C39.7818 31.3432 41.0683 27.6134 41.0635 23.7736C41.0635 20.354 40.0494 17.0112 38.1496 14.1679C36.2498 11.3245 33.5495 9.10846 30.3902 7.79983C27.2308 6.49119 23.7544 6.1488 20.4005 6.81593C17.0466 7.48307 13.9658 9.12977 11.5478 11.5478C9.12977 13.9658 7.48307 17.0466 6.81593 20.4005C6.1488 23.7544 6.49119 27.2308 7.79983 30.3902C9.10846 33.5495 11.3245 36.2498 14.1679 38.1496C17.0112 40.0494 20.354 41.0635 23.7736 41.0635C27.6134 41.0683 31.3432 39.7818 34.3637 37.411L41.6902 44.7592C41.8912 44.9618 42.1302 45.1226 42.3936 45.2323C42.6569 45.342 42.9394 45.3985 43.2247 45.3985C43.51 45.3985 43.7925 45.342 44.0559 45.2323C44.3192 45.1226 44.5583 44.9618 44.7592 44.7592C44.9618 44.5583 45.1226 44.3192 45.2323 44.0559C45.342 43.7925 45.3985 43.51 45.3985 43.2247C45.3985 42.9394 45.342 42.6569 45.2323 42.3936C45.1226 42.1302 44.9618 41.8912 44.7592 41.6902ZM10.8062 23.7736C10.8062 21.2089 11.5667 18.7018 12.9916 16.5693C14.4165 14.4368 16.4417 12.7747 18.8112 11.7933C21.1807 10.8118 23.788 10.555 26.3034 11.0553C28.8188 11.5557 31.1294 12.7907 32.9429 14.6043C34.7565 16.4178 35.9915 18.7283 36.4918 21.2438C36.9922 23.7592 36.7354 26.3665 35.7539 28.736C34.7725 31.1055 33.1104 33.1307 30.9779 34.5556C28.8454 35.9805 26.3383 36.741 23.7736 36.741C20.3344 36.741 17.0361 35.3748 14.6043 32.9429C12.1724 30.5111 10.8062 27.2128 10.8062 23.7736Z" fill="white"/>
</svg>
