<svg width="52" height="52" viewBox="0 0 52 52" fill="none" xmlns="http://www.w3.org/2000/svg">
<path d="M43.3328 23.7736H8.53688C7.40294 23.7736 6.4837 24.6928 6.4837 25.8268V26.0429C6.4837 27.1768 7.40294 28.0961 8.53688 28.0961H43.3328C44.4667 28.0961 45.3859 27.1768 45.3859 26.0429V25.8268C45.3859 24.6928 44.4667 23.7736 43.3328 23.7736Z" fill="white"/>
<path d="M43.3328 34.5798H8.53688C7.40294 34.5798 6.4837 35.499 6.4837 36.6329V36.8491C6.4837 37.983 7.40294 38.9022 8.53688 38.9022H43.3328C44.4667 38.9022 45.3859 37.983 45.3859 36.8491V36.6329C45.3859 35.499 44.4667 34.5798 43.3328 34.5798Z" fill="white"/>
<path d="M43.3328 12.9674H8.53688C7.40294 12.9674 6.4837 13.8866 6.4837 15.0206V15.2367C6.4837 16.3706 7.40294 17.2899 8.53688 17.2899H43.3328C44.4667 17.2899 45.3859 16.3706 45.3859 15.2367V15.0206C45.3859 13.8866 44.4667 12.9674 43.3328 12.9674Z" fill="white"/>
</svg>
